<svg width="581" height="315" viewBox="0 0 581 315" fill="none" xmlns="http://www.w3.org/2000/svg">
<path d="M96.6614 50.806V150H69.0841V110.182H35.4566V150H7.87924V50.806H35.4566V88.0917H69.0841V50.806H96.6614ZM187.859 109.619C187.859 111.776 187.718 113.934 187.436 116.091H135.236C135.518 120.406 136.69 123.642 138.754 125.799C140.911 127.863 143.632 128.895 146.915 128.895C151.511 128.895 154.794 126.831 156.764 122.704H186.17C184.951 128.144 182.559 133.022 178.994 137.337C175.524 141.558 171.115 144.888 165.769 147.327C160.422 149.765 154.512 150.985 148.04 150.985C140.255 150.985 133.314 149.343 127.217 146.06C121.213 142.777 116.476 138.087 113.006 131.99C109.629 125.893 107.941 118.718 107.941 110.463C107.941 102.209 109.629 95.0798 113.006 89.0766C116.383 82.9796 121.073 78.2895 127.076 75.0065C133.173 71.7235 140.161 70.082 148.04 70.082C155.826 70.082 162.72 71.6766 168.723 74.8658C174.726 78.055 179.416 82.6513 182.793 88.6545C186.17 94.5639 187.859 101.552 187.859 109.619ZM159.718 102.725C159.718 99.3477 158.593 96.7213 156.342 94.8453C154.09 92.8755 151.276 91.8906 147.9 91.8906C144.523 91.8906 141.756 92.8286 139.598 94.7046C137.441 96.4868 136.034 99.1601 135.377 102.725H159.718ZM194.642 110.463C194.642 102.302 196.096 95.1736 199.004 89.0766C202.005 82.9796 206.039 78.2895 211.104 75.0065C216.263 71.7235 221.985 70.082 228.269 70.082C233.71 70.082 238.4 71.1607 242.339 73.3181C246.279 75.4755 249.328 78.3833 251.485 82.0416V71.0669H279.062V150H251.485V139.025C249.328 142.684 246.232 145.591 242.199 147.749C238.259 149.906 233.616 150.985 228.269 150.985C221.985 150.985 216.263 149.343 211.104 146.06C206.039 142.777 202.005 138.087 199.004 131.99C196.096 125.799 194.642 118.624 194.642 110.463ZM251.485 110.463C251.485 105.398 250.078 101.411 247.264 98.5035C244.544 95.5957 241.167 94.1418 237.133 94.1418C233.006 94.1418 229.583 95.5957 226.862 98.5035C224.142 101.318 222.782 105.304 222.782 110.463C222.782 115.528 224.142 119.562 226.862 122.563C229.583 125.471 233.006 126.925 237.133 126.925C241.167 126.925 244.544 125.471 247.264 122.563C250.078 119.656 251.485 115.622 251.485 110.463ZM322.354 45.8815V150H294.777V45.8815H322.354ZM384.631 126.503V150H372.671C352.504 150 342.42 140.01 342.42 120.031V94.0011H332.712V71.0669H342.42V51.9316H370.139V71.0669H384.49V94.0011H370.139V120.453C370.139 122.61 370.608 124.158 371.546 125.096C372.577 126.034 374.266 126.503 376.611 126.503H384.631ZM449.198 70.3634C458.203 70.3634 465.332 73.4119 470.585 79.5089C475.931 85.5122 478.604 93.6728 478.604 103.991V150H451.027V107.649C451.027 103.147 449.855 99.6291 447.51 97.0965C445.165 94.4701 442.022 93.1569 438.083 93.1569C433.955 93.1569 430.719 94.4701 428.374 97.0965C426.029 99.6291 424.857 103.147 424.857 107.649V150H397.279V45.8815H424.857V82.323C427.296 78.7585 430.579 75.8976 434.706 73.7402C438.927 71.489 443.758 70.3634 449.198 70.3634Z" fill="black"/>
<path d="M526.227 153.425C521.349 153.425 517.41 152.111 514.408 149.485C511.5 146.765 510.046 143.341 510.046 139.214C510.046 135.087 511.5 131.663 514.408 128.943C517.41 126.223 521.349 124.862 526.227 124.862C531.011 124.862 534.857 126.223 537.764 128.943C540.766 131.663 542.267 135.087 542.267 139.214C542.267 143.247 540.766 146.624 537.764 149.344C534.857 152.065 531.011 153.425 526.227 153.425Z" fill="#CDF463"/>
<path d="M514.408 149.485L513.3 150.67L513.319 150.689L513.34 150.706L514.408 149.485ZM514.408 128.943L513.318 127.74L513.309 127.749L513.3 127.758L514.408 128.943ZM537.764 128.943L536.656 130.128L536.665 130.137L536.675 130.145L537.764 128.943ZM537.764 149.344L536.675 148.142L536.665 148.151L536.656 148.159L537.764 149.344ZM526.227 151.802C521.651 151.802 518.12 150.577 515.477 148.264L513.34 150.706C516.699 153.646 521.048 155.047 526.227 155.047V151.802ZM515.517 148.3C512.95 145.899 511.669 142.91 511.669 139.214H508.424C508.424 143.772 510.05 147.631 513.3 150.67L515.517 148.3ZM511.669 139.214C511.669 135.517 512.95 132.529 515.517 130.128L513.3 127.758C510.05 130.797 508.424 134.656 508.424 139.214H511.669ZM515.498 130.145C518.143 127.749 521.666 126.485 526.227 126.485V123.24C521.033 123.24 516.677 124.697 513.318 127.74L515.498 130.145ZM526.227 126.485C530.687 126.485 534.107 127.744 536.656 130.128L538.873 127.758C535.606 124.701 531.335 123.24 526.227 123.24V126.485ZM536.675 130.145C539.33 132.551 540.644 135.535 540.644 139.214H543.89C543.89 134.638 542.202 130.775 538.854 127.74L536.675 130.145ZM540.644 139.214C540.644 142.787 539.339 145.728 536.675 148.142L538.854 150.547C542.194 147.521 543.89 143.708 543.89 139.214H540.644ZM536.656 148.159C534.107 150.543 530.687 151.802 526.227 151.802V155.047C531.335 155.047 535.606 153.586 538.873 150.529L536.656 148.159Z" fill="black"/>
<path d="M3.37682 243.501C3.37682 235.34 5.06523 228.211 8.44204 222.114C11.8189 216.017 16.5089 211.327 22.5121 208.044C28.6091 204.761 35.5504 203.119 43.3358 203.119C53.3725 203.119 61.8145 205.887 68.662 211.421C75.5094 216.861 79.918 224.506 81.8878 234.355H52.6221C50.9337 229.196 47.6506 226.616 42.773 226.616C39.3024 226.616 36.5353 228.07 34.4717 230.978C32.5019 233.792 31.517 237.966 31.517 243.501C31.517 249.035 32.5019 253.256 34.4717 256.164C36.5353 259.071 39.3024 260.525 42.773 260.525C47.7444 260.525 51.0275 257.946 52.6221 252.787H81.8878C79.918 262.542 75.5094 270.187 68.662 275.721C61.8145 281.255 53.3725 284.022 43.3358 284.022C35.5504 284.022 28.6091 282.381 22.5121 279.098C16.5089 275.815 11.8189 271.125 8.44204 265.028C5.06523 258.931 3.37682 251.755 3.37682 243.501ZM88.8415 243.501C88.8415 235.34 90.2954 228.211 93.2032 222.114C96.2048 216.017 100.238 211.327 105.303 208.044C110.463 204.761 116.184 203.119 122.469 203.119C127.909 203.119 132.599 204.198 136.539 206.356C140.479 208.513 143.527 211.421 145.685 215.079V204.104H173.262V283.037H145.685V272.063C143.527 275.721 140.432 278.629 136.398 280.786C132.459 282.944 127.816 284.022 122.469 284.022C116.184 284.022 110.463 282.381 105.303 279.098C100.238 275.815 96.2048 271.125 93.2032 265.028C90.2954 258.837 88.8415 251.661 88.8415 243.501ZM145.685 243.501C145.685 238.435 144.278 234.449 141.464 231.541C138.743 228.633 135.367 227.179 131.333 227.179C127.206 227.179 123.782 228.633 121.062 231.541C118.342 234.355 116.982 238.342 116.982 243.501C116.982 248.566 118.342 252.599 121.062 255.601C123.782 258.509 127.206 259.963 131.333 259.963C135.367 259.963 138.743 258.509 141.464 255.601C144.278 252.693 145.685 248.66 145.685 243.501ZM216.554 218.034C219.649 213.531 223.401 209.967 227.81 207.34C232.218 204.714 236.955 203.401 242.021 203.401V232.807H234.282C228.279 232.807 223.823 233.98 220.916 236.325C218.008 238.67 216.554 242.75 216.554 248.566V283.037H188.976V204.104H216.554V218.034ZM327.323 242.656C327.323 244.814 327.182 246.971 326.901 249.129H274.701C274.982 253.443 276.154 256.68 278.218 258.837C280.375 260.901 283.096 261.932 286.379 261.932C290.975 261.932 294.258 259.869 296.228 255.742H325.634C324.415 261.182 322.023 266.06 318.458 270.374C314.988 274.595 310.579 277.925 305.233 280.364C299.886 282.803 293.977 284.022 287.504 284.022C279.719 284.022 272.778 282.381 266.681 279.098C260.677 275.815 255.94 271.125 252.47 265.028C249.093 258.931 247.405 251.755 247.405 243.501C247.405 235.246 249.093 228.117 252.47 222.114C255.847 216.017 260.537 211.327 266.54 208.044C272.637 204.761 279.625 203.119 287.504 203.119C295.29 203.119 302.184 204.714 308.187 207.903C314.191 211.093 318.881 215.689 322.257 221.692C325.634 227.601 327.323 234.59 327.323 242.656ZM299.182 235.762C299.182 232.385 298.057 229.759 295.806 227.883C293.554 225.913 290.74 224.928 287.364 224.928C283.987 224.928 281.22 225.866 279.062 227.742C276.905 229.524 275.498 232.198 274.841 235.762H299.182Z" fill="#CDF463"/>
<path d="M8.44204 222.114L9.86165 222.9L8.44204 222.114ZM22.5121 208.044L21.7427 206.615L21.7335 206.62L22.5121 208.044ZM68.662 211.421L67.6419 212.683L67.6525 212.691L68.662 211.421ZM81.8878 234.355V235.978H83.8673L83.4791 234.037L81.8878 234.355ZM52.6221 234.355L51.0798 234.86L51.4457 235.978H52.6221V234.355ZM34.4717 230.978L33.1482 230.039L33.1422 230.048L34.4717 230.978ZM34.4717 256.164L33.1281 257.074L33.138 257.088L33.1483 257.103L34.4717 256.164ZM52.6221 252.787V251.164H51.4251L51.0716 252.308L52.6221 252.787ZM81.8878 252.787L83.4785 253.108L83.871 251.164H81.8878V252.787ZM68.662 275.721L69.682 276.983L68.662 275.721ZM22.5121 279.098L21.7335 280.522L21.7428 280.527L22.5121 279.098ZM8.44204 265.028L9.86165 264.242L8.44204 265.028ZM4.99961 243.501C4.99961 235.568 6.63925 228.719 9.86165 222.9L7.02244 221.328C3.4912 227.704 1.75402 235.112 1.75402 243.501H4.99961ZM9.86165 222.9C13.0924 217.067 17.5625 212.6 23.2908 209.468L21.7335 206.62C15.4553 210.054 10.5453 214.967 7.02244 221.328L9.86165 222.9ZM23.2815 209.473C29.1139 206.332 35.7851 204.742 43.3358 204.742V201.497C35.3157 201.497 28.1044 203.19 21.7428 206.615L23.2815 209.473ZM43.3358 204.742C53.056 204.742 61.1231 207.414 67.6419 212.683L69.682 210.159C62.5059 204.359 53.6889 201.497 43.3358 201.497V204.742ZM67.6525 212.691C74.1554 217.858 78.3902 225.141 80.2965 234.673L83.4791 234.037C81.4459 223.871 76.8634 215.864 69.6715 210.15L67.6525 212.691ZM81.8878 232.732H52.6221V235.978H81.8878V232.732ZM54.1644 233.85C53.25 231.056 51.8554 228.815 49.8961 227.275C47.9223 225.724 45.5116 224.994 42.773 224.994V228.239C44.912 228.239 46.5817 228.799 47.8909 229.827C49.2146 230.867 50.3057 232.495 51.0798 234.86L54.1644 233.85ZM42.773 224.994C38.7597 224.994 35.5063 226.716 33.1483 230.039L35.7951 231.917C37.5643 229.424 39.8451 228.239 42.773 228.239V224.994ZM33.1422 230.048C30.8969 233.255 29.8942 237.82 29.8942 243.501H33.1398C33.1398 238.113 34.1068 234.329 35.8011 231.909L33.1422 230.048ZM29.8942 243.501C29.8942 249.187 30.8992 253.783 33.1281 257.074L35.8152 255.253C34.1045 252.728 33.1398 248.882 33.1398 243.501H29.8942ZM33.1483 257.103C35.5063 260.426 38.7597 262.148 42.773 262.148V258.903C39.8451 258.903 37.5643 257.717 35.7951 255.224L33.1483 257.103ZM42.773 262.148C45.5504 262.148 47.9872 261.422 49.9664 259.867C51.9338 258.321 53.3062 256.069 54.1725 253.266L51.0716 252.308C50.3433 254.664 49.2769 256.281 47.9613 257.315C46.6575 258.339 44.967 258.903 42.773 258.903V262.148ZM52.6221 254.41H81.8878V251.164H52.6221V254.41ZM80.2971 252.466C78.3918 261.902 74.1571 269.193 67.6419 274.459L69.682 276.983C76.8617 271.18 81.4442 263.183 83.4785 253.108L80.2971 252.466ZM67.6419 274.459C61.1231 279.728 53.056 282.4 43.3358 282.4V285.645C53.6889 285.645 62.5059 282.783 69.682 276.983L67.6419 274.459ZM43.3358 282.4C35.7851 282.4 29.1139 280.81 23.2815 277.669L21.7428 280.527C28.1044 283.952 35.3157 285.645 43.3358 285.645V282.4ZM23.2908 277.674C17.5625 274.541 13.0924 270.075 9.86165 264.242L7.02244 265.814C10.5453 272.175 15.4553 277.088 21.7335 280.522L23.2908 277.674ZM9.86165 264.242C6.64071 258.426 4.99961 251.531 4.99961 243.501H1.75402C1.75402 251.979 3.48974 259.436 7.02244 265.814L9.86165 264.242ZM93.2032 222.114L91.7473 221.397L91.7428 221.406L91.7385 221.415L93.2032 222.114ZM105.303 208.044L104.432 206.675L104.421 206.682L105.303 208.044ZM136.539 206.356L135.76 207.779L136.539 206.356ZM145.685 215.079L144.287 215.903L147.307 221.025V215.079H145.685ZM145.685 204.104V202.482H144.062V204.104H145.685ZM173.262 204.104H174.885V202.482H173.262V204.104ZM173.262 283.037V284.66H174.885V283.037H173.262ZM145.685 283.037H144.062V284.66H145.685V283.037ZM145.685 272.063H147.307V266.117L144.287 271.238L145.685 272.063ZM136.398 280.786L135.633 279.355L135.626 279.359L135.619 279.363L136.398 280.786ZM105.303 279.098L104.421 280.46L104.432 280.467L105.303 279.098ZM93.2032 265.028L91.7344 265.718L91.7407 265.731L91.7473 265.745L93.2032 265.028ZM141.464 231.541L140.279 232.65L140.288 232.66L140.297 232.67L141.464 231.541ZM121.062 231.541L122.229 232.669L122.238 232.659L122.247 232.65L121.062 231.541ZM121.062 255.601L119.86 256.691L119.868 256.7L119.877 256.709L121.062 255.601ZM141.464 255.601L140.297 254.472L140.288 254.482L140.279 254.492L141.464 255.601ZM90.4643 243.501C90.4643 235.532 91.8836 228.651 94.668 222.813L91.7385 221.415C88.7072 227.771 87.2187 235.148 87.2187 243.501H90.4643ZM94.6592 222.831C97.5481 216.963 101.397 212.51 106.186 209.406L104.421 206.682C99.08 210.144 94.8616 215.071 91.7473 221.397L94.6592 222.831ZM106.175 209.413C111.066 206.301 116.484 204.742 122.469 204.742V201.497C115.885 201.497 109.859 203.221 104.432 206.675L106.175 209.413ZM122.469 204.742C127.694 204.742 132.105 205.777 135.76 207.779L137.318 204.932C133.094 202.619 128.125 201.497 122.469 201.497V204.742ZM135.76 207.779C139.458 209.804 142.286 212.512 144.287 215.903L147.082 214.255C144.768 210.33 141.499 207.222 137.318 204.932L135.76 207.779ZM147.307 215.079V204.104H144.062V215.079H147.307ZM145.685 205.727H173.262V202.482H145.685V205.727ZM171.639 204.104V283.037H174.885V204.104H171.639ZM173.262 281.415H145.685V284.66H173.262V281.415ZM147.307 283.037V272.063H144.062V283.037H147.307ZM144.287 271.238C142.292 274.621 139.425 277.327 135.633 279.355L137.164 282.217C141.439 279.931 144.762 276.822 147.082 272.887L144.287 271.238ZM135.619 279.363C131.96 281.367 127.595 282.4 122.469 282.4V285.645C128.036 285.645 132.958 284.521 137.178 282.21L135.619 279.363ZM122.469 282.4C116.484 282.4 111.066 280.841 106.175 277.729L104.432 280.467C109.859 283.92 115.885 285.645 122.469 285.645V282.4ZM106.186 277.736C101.397 274.632 97.5481 270.179 94.6592 264.311L91.7473 265.745C94.8616 272.071 99.08 276.998 104.421 280.46L106.186 277.736ZM94.6721 264.338C91.8833 258.401 90.4643 251.468 90.4643 243.501H87.2187C87.2187 251.854 88.7075 259.273 91.7344 265.718L94.6721 264.338ZM147.307 243.501C147.307 238.126 145.806 233.695 142.63 230.412L140.297 232.67C142.749 235.203 144.062 238.745 144.062 243.501H147.307ZM142.649 230.432C139.617 227.192 135.809 225.556 131.333 225.556V228.802C134.924 228.802 137.87 230.075 140.279 232.65L142.649 230.432ZM131.333 225.556C126.775 225.556 122.916 227.183 119.877 230.432L122.247 232.65C124.648 230.083 127.637 228.802 131.333 228.802V225.556ZM119.895 230.413C116.799 233.616 115.359 238.059 115.359 243.501H118.604C118.604 238.624 119.885 235.094 122.229 232.669L119.895 230.413ZM115.359 243.501C115.359 248.864 116.806 253.321 119.86 256.691L122.264 254.511C119.878 251.878 118.604 248.268 118.604 243.501H115.359ZM119.877 256.709C122.916 259.959 126.775 261.585 131.333 261.585V258.34C127.637 258.34 124.648 257.059 122.247 254.492L119.877 256.709ZM131.333 261.585C135.809 261.585 139.617 259.95 142.649 256.709L140.279 254.492C137.87 257.067 134.924 258.34 131.333 258.34V261.585ZM142.63 256.729C145.811 253.442 147.307 248.96 147.307 243.501H144.062C144.062 248.359 142.744 251.944 140.297 254.472L142.63 256.729ZM216.554 218.034H214.931V223.259L217.891 218.953L216.554 218.034ZM242.021 203.401H243.643V201.778H242.021V203.401ZM242.021 232.807V234.43H243.643V232.807H242.021ZM220.915 236.325L221.934 237.588V237.588L220.915 236.325ZM216.554 283.037V284.66H218.177V283.037H216.554ZM188.976 283.037H187.354V284.66H188.976V283.037ZM188.976 204.104V202.482H187.354V204.104H188.976ZM216.554 204.104H218.177V202.482H216.554V204.104ZM217.891 218.953C220.863 214.631 224.446 211.234 228.64 208.735L226.979 205.946C222.357 208.7 218.436 212.432 215.217 217.114L217.891 218.953ZM228.64 208.735C232.801 206.256 237.252 205.024 242.021 205.024V201.778C236.659 201.778 231.636 203.172 226.979 205.946L228.64 208.735ZM240.398 203.401V232.807H243.643V203.401H240.398ZM242.021 231.185H234.282V234.43H242.021V231.185ZM234.282 231.185C228.118 231.185 223.222 232.38 219.897 235.062L221.934 237.588C224.424 235.58 228.44 234.43 234.282 234.43V231.185ZM219.897 235.062C216.435 237.854 214.931 242.535 214.931 248.566H218.177C218.177 242.965 219.581 239.486 221.934 237.588L219.897 235.062ZM214.931 248.566V283.037H218.177V248.566H214.931ZM216.554 281.415H188.976V284.66H216.554V281.415ZM190.599 283.037V204.104H187.354V283.037H190.599ZM188.976 205.727H216.554V202.482H188.976V205.727ZM214.931 204.104V218.034H218.177V204.104H214.931ZM326.901 249.129V250.751H328.325L328.51 249.338L326.901 249.129ZM274.701 249.129V247.506H272.968L273.081 249.234L274.701 249.129ZM278.218 258.837L277.045 259.959L277.07 259.985L277.096 260.01L278.218 258.837ZM296.228 255.742V254.119H295.204L294.763 255.043L296.228 255.742ZM325.634 255.742L327.218 256.096L327.661 254.119H325.634V255.742ZM318.458 270.374L317.207 269.341L317.205 269.344L318.458 270.374ZM305.233 280.364L305.906 281.841L305.233 280.364ZM266.681 279.098L265.902 280.522L265.911 280.527L266.681 279.098ZM252.47 265.028L251.05 265.814L251.055 265.822L251.06 265.831L252.47 265.028ZM252.47 222.114L253.884 222.91L253.889 222.9L252.47 222.114ZM266.54 208.044L265.771 206.615L265.761 206.62L266.54 208.044ZM308.187 207.903L308.949 206.47L308.187 207.903ZM322.257 221.692L320.843 222.488L320.848 222.497L322.257 221.692ZM299.182 235.762V237.385H300.805V235.762H299.182ZM295.806 227.883L294.737 229.104L294.752 229.117L294.767 229.129L295.806 227.883ZM279.062 227.742L280.096 228.993L280.112 228.98L280.127 228.967L279.062 227.742ZM274.841 235.762L273.245 235.468L272.892 237.385H274.841V235.762ZM325.7 242.656C325.7 244.743 325.564 246.83 325.291 248.919L328.51 249.338C328.8 247.112 328.945 244.885 328.945 242.656H325.7ZM326.901 247.506H274.701V250.751H326.901V247.506ZM273.081 249.234C273.377 253.763 274.622 257.425 277.045 259.959L279.391 257.715C277.687 255.934 276.587 253.124 276.32 249.023L273.081 249.234ZM277.096 260.01C279.587 262.392 282.723 263.555 286.379 263.555V260.31C283.468 260.31 281.164 259.409 279.34 257.664L277.096 260.01ZM286.379 263.555C288.925 263.555 291.207 262.981 293.152 261.759C295.097 260.536 296.599 258.731 297.692 256.441L294.763 255.043C293.887 256.879 292.762 258.17 291.425 259.011C290.086 259.852 288.429 260.31 286.379 260.31V263.555ZM296.228 257.364H325.634V254.119H296.228V257.364ZM324.051 255.387C322.887 260.577 320.61 265.222 317.207 269.341L319.71 271.408C323.436 266.897 325.942 261.787 327.218 256.096L324.051 255.387ZM317.205 269.344C313.903 273.36 309.698 276.544 304.559 278.888L305.906 281.841C311.46 279.307 316.073 275.831 319.712 271.405L317.205 269.344ZM304.559 278.888C299.445 281.221 293.768 282.4 287.504 282.4V285.645C294.185 285.645 300.327 284.385 305.906 281.841L304.559 278.888ZM287.504 282.4C279.954 282.4 273.282 280.81 267.45 277.669L265.911 280.527C272.273 283.952 279.484 285.645 287.504 285.645V282.4ZM267.459 277.674C261.727 274.539 257.206 270.067 253.88 264.225L251.06 265.831C254.675 272.182 259.628 277.09 265.902 280.522L267.459 277.674ZM253.889 264.242C250.669 258.426 249.027 251.531 249.027 243.501H245.782C245.782 251.979 247.518 259.436 251.05 265.814L253.889 264.242ZM249.027 243.501C249.027 235.47 250.669 228.626 253.884 222.91L251.055 221.318C247.517 227.609 245.782 235.023 245.782 243.501H249.027ZM253.889 222.9C257.12 217.067 261.59 212.6 267.319 209.468L265.761 206.62C259.483 210.054 254.573 214.967 251.05 221.328L253.889 222.9ZM267.309 209.473C273.139 206.334 279.856 204.742 287.504 204.742V201.497C279.394 201.497 272.135 203.188 265.771 206.615L267.309 209.473ZM287.504 204.742C295.063 204.742 301.689 206.289 307.426 209.336L308.949 206.47C302.679 203.139 295.516 201.497 287.504 201.497V204.742ZM307.426 209.336C313.151 212.378 317.616 216.751 320.843 222.488L323.672 220.896C320.145 214.626 315.23 209.807 308.949 206.47L307.426 209.336ZM320.848 222.497C324.061 228.119 325.7 234.819 325.7 242.656H328.945C328.945 234.36 327.207 227.083 323.666 220.887L320.848 222.497ZM300.805 235.762C300.805 231.986 299.524 228.869 296.845 226.636L294.767 229.129C296.589 230.648 297.56 232.785 297.56 235.762H300.805ZM296.874 226.662C294.289 224.399 291.079 223.305 287.364 223.305V226.551C290.402 226.551 292.82 227.427 294.737 229.104L296.874 226.662ZM287.364 223.305C283.67 223.305 280.502 224.34 277.997 226.518L280.127 228.967C281.937 227.393 284.303 226.551 287.364 226.551V223.305ZM278.029 226.491C275.5 228.58 273.95 231.641 273.245 235.468L276.437 236.056C277.045 232.754 278.31 230.468 280.096 228.993L278.029 226.491ZM274.841 237.385H299.182V234.139H274.841V237.385Z" fill="black"/>
</svg>
